<?xml version="1.0" encoding="UTF-8"?>
<svg width="58px" height="49px" viewBox="0 0 58 49" version="1.1" xmlns="http://www.w3.org/2000/svg" xmlns:xlink="http://www.w3.org/1999/xlink">
    <!-- Generator: Sketch 60.1 (88133) - https://sketch.com -->
    <title>icon-cooperation@2x</title>
    <desc>Created with Sketch.</desc>
    <defs>
        <linearGradient x1="79.5469562%" y1="39.5311322%" x2="32.6773932%" y2="55.8885337%" id="linearGradient-1">
            <stop stop-color="#81E6FF" offset="0%"></stop>
            <stop stop-color="#2D94FF" offset="100%"></stop>
        </linearGradient>
        <linearGradient x1="100%" y1="37.0832542%" x2="0%" y2="62.9167458%" id="linearGradient-2">
            <stop stop-color="#979797" stop-opacity="0" offset="0%"></stop>
            <stop stop-color="#FFFFFF" stop-opacity="0.380945592" offset="100%"></stop>
        </linearGradient>
        <linearGradient x1="79.5469562%" y1="39.4210144%" x2="32.6773932%" y2="55.9504728%" id="linearGradient-3">
            <stop stop-color="#81E6FF" offset="0%"></stop>
            <stop stop-color="#2D94FF" offset="100%"></stop>
        </linearGradient>
        <linearGradient x1="100%" y1="36.9473881%" x2="0%" y2="63.0526119%" id="linearGradient-4">
            <stop stop-color="#979797" stop-opacity="0" offset="0%"></stop>
            <stop stop-color="#FFFFFF" stop-opacity="0.380945592" offset="100%"></stop>
        </linearGradient>
        <linearGradient x1="79.5469562%" y1="39.2188111%" x2="32.6773932%" y2="56.0642082%" id="linearGradient-5">
            <stop stop-color="#81E6FF" offset="0%"></stop>
            <stop stop-color="#2D94FF" offset="100%"></stop>
        </linearGradient>
        <linearGradient x1="100%" y1="36.6979047%" x2="0%" y2="63.3020953%" id="linearGradient-6">
            <stop stop-color="#979797" stop-opacity="0" offset="0%"></stop>
            <stop stop-color="#FFFFFF" stop-opacity="0.380945592" offset="100%"></stop>
        </linearGradient>
    </defs>
    <g id="页面-2" stroke="none" stroke-width="1" fill="none" fill-rule="evenodd">
        <g id="政府政策-home" transform="translate(-220.000000, -1561.000000)">
            <g id="编组-8备份" transform="translate(92.000000, 1521.000000)">
                <g id="icon-cooperation" transform="translate(117.000000, 24.000000)">
                    <rect id="矩形" x="0" y="0" width="80" height="80"></rect>
                    <g id="编组" transform="translate(11.000000, 16.000000)" fill-rule="nonzero" stroke-width="0.623376623">
                        <path d="M23.368075,20.2538472 C26.7063706,18.5154246 30.6829509,18.5154246 34.0212464,20.2538472 L34.0212464,20.2538472 L55.5673513,31.474015 C56.2544074,31.8318005 56.7313987,32.434199 56.9471796,33.1189151 C57.1629605,33.8036313 57.117531,34.570665 56.7597455,35.2577211 C56.4747634,35.8049725 56.0173045,36.2430003 55.4582063,36.5039757 L55.4582063,36.5039757 L33.5725394,46.7197502 C30.4807404,48.1629377 26.9085811,48.1629377 23.816782,46.7197502 L23.816782,46.7197502 L1.9311151,36.5039757 C1.22918588,36.1763297 0.726513002,35.5951889 0.481233924,34.9204773 C0.235954849,34.2457658 0.248069575,33.4774833 0.575715552,32.7755541 C0.83669093,32.216456 1.27471876,31.758997 1.82197015,31.474015 L1.82197015,31.474015 L23.368075,20.2538472 Z" id="矩形" stroke="url(#linearGradient-2)" fill="url(#linearGradient-1)"></path>
                        <path d="M23.368075,10.7051322 C26.7063706,8.96670957 30.6829509,8.96670957 34.0212464,10.7051322 L34.0212464,10.7051322 L51.1594129,19.6298591 C51.846469,19.9876447 52.3234603,20.5900432 52.5392412,21.2747593 C52.7550221,21.9594754 52.7095926,22.7265092 52.3518071,23.4135653 C52.0668251,23.9608167 51.6093661,24.3988445 51.050268,24.6598198 L51.050268,24.6598198 L33.5725394,32.8180604 C30.4807404,34.2612479 26.9085811,34.2612479 23.816782,32.8180604 L23.816782,32.8180604 L6.33905349,24.6598198 C5.63712425,24.3321739 5.13445138,23.7510331 4.8891723,23.0763215 C4.64389323,22.4016099 4.65600795,21.6333275 4.98365393,20.9313982 C5.2446293,20.3723001 5.68265714,19.9148412 6.22990853,19.6298591 L6.22990853,19.6298591 L23.368075,10.7051322 Z" id="矩形备份-5" stroke="url(#linearGradient-4)" fill-opacity="0.57" fill="url(#linearGradient-3)"></path>
                        <path d="M23.368075,1.61550531 C26.7063706,-0.122917355 30.6829509,-0.122917355 34.0212464,1.61550531 L34.0212464,1.61550531 L45.8698869,7.78570329 C46.556943,8.14348881 47.0339342,8.74588731 47.2497152,9.43060345 C47.4654961,10.1153196 47.4200666,10.8823534 47.062281,11.5694095 C46.777299,12.1166608 46.31984,12.5546886 45.760742,12.815664 L45.760742,12.815664 L33.5725394,18.5048637 C30.4807404,19.9480512 26.9085811,19.9480512 23.816782,18.5048637 L23.816782,18.5048637 L11.6285796,12.815664 C10.9266503,12.4880181 10.4239774,11.9068773 10.1786983,11.2321656 C9.93341928,10.5574541 9.94553398,9.78917162 10.27318,9.08724237 C10.5341554,8.52814429 10.9721832,8.07068534 11.5194346,7.78570329 L11.5194346,7.78570329 L23.368075,1.61550531 Z" id="矩形备份-6" stroke="url(#linearGradient-6)" fill-opacity="0.31" fill="url(#linearGradient-5)"></path>
                    </g>
                </g>
            </g>
        </g>
    </g>
</svg>