<svg width="96" height="96" xmlns="http://www.w3.org/2000/svg" xmlns:xlink="http://www.w3.org/1999/xlink" xml:space="preserve" overflow="hidden"><defs><clipPath id="clip0"><rect x="392" y="441" width="96" height="96"/></clipPath></defs><g clip-path="url(#clip0)" transform="translate(-392 -441)"><path d="M453.08 484C459.698 477.34 459.663 466.576 453.003 459.958 450.795 457.764 448.026 456.219 445 455.49L445 446 439 446 439 455 433 455 433 446 427 446 427 455 413 455 413 461 419 461 419 517 413 517 413 523 427 523 427 532 433 532 433 523 439 523 439 532 445 532 445 523 447 523C458.045 522.91 466.926 513.883 466.836 502.838 466.766 494.258 461.232 486.678 453.08 484ZM441 461C447.075 461 452 465.925 452 472 452 478.075 447.075 483 441 483L425 483 425 461ZM447 517 425 517 425 489 447 489C454.732 489 461 495.268 461 503 461 510.732 454.732 517 447 517Z" stroke="#FFFFFF"/></g></svg>